<svg width="30" height="30" viewBox="0 0 30 30" fill="none" xmlns="http://www.w3.org/2000/svg">
<path d="M15 5.625C12.5136 5.625 10.129 6.61272 8.37087 8.37087C6.61272 10.129 5.625 12.5136 5.625 15V16.875H7.5C7.99728 16.875 8.47419 17.0725 8.82582 17.4242C9.17746 17.7758 9.375 18.2527 9.375 18.75V24.375C9.375 24.8723 9.17746 25.3492 8.82582 25.7008C8.47419 26.0525 7.99728 26.25 7.5 26.25H5.625C5.12772 26.25 4.65081 26.0525 4.29917 25.7008C3.94754 25.3492 3.75 24.8723 3.75 24.375V15C3.75 13.5226 4.04099 12.0597 4.60636 10.6948C5.17172 9.3299 6.00039 8.08971 7.04505 7.04505C8.08971 6.00039 9.3299 5.17172 10.6948 4.60636C12.0597 4.04099 13.5226 3.75 15 3.75C16.4774 3.75 17.9403 4.04099 19.3052 4.60636C20.6701 5.17172 21.9103 6.00039 22.955 7.04505C23.9996 8.08971 24.8283 9.3299 25.3936 10.6948C25.959 12.0597 26.25 13.5226 26.25 15V24.375C26.25 24.8723 26.0525 25.3492 25.7008 25.7008C25.3492 26.0525 24.8723 26.25 24.375 26.25H22.5C22.0027 26.25 21.5258 26.0525 21.1742 25.7008C20.8225 25.3492 20.625 24.8723 20.625 24.375V18.75C20.625 18.2527 20.8225 17.7758 21.1742 17.4242C21.5258 17.0725 22.0027 16.875 22.5 16.875H24.375V15C24.375 12.5136 23.3873 10.129 21.6291 8.37087C19.871 6.61272 17.4864 5.625 15 5.625V5.625Z" fill="#9AB0BA"/>
</svg>
