<svg width="30" height="30" viewBox="0 0 30 30" fill="none" xmlns="http://www.w3.org/2000/svg">
<path d="M19.375 1.25H9.375C8.5462 1.25 7.75134 1.57924 7.16529 2.16529C6.57924 2.75134 6.25 3.5462 6.25 4.375V25.625C6.25 26.4538 6.57924 27.2487 7.16529 27.8347C7.75134 28.4208 8.5462 28.75 9.375 28.75H19.375C20.2038 28.75 20.9987 28.4208 21.5847 27.8347C22.1708 27.2487 22.5 26.4538 22.5 25.625V4.375C22.5 3.5462 22.1708 2.75134 21.5847 2.16529C20.9987 1.57924 20.2038 1.25 19.375 1.25V1.25ZM14.375 27.5C13.3375 27.5 12.5 26.6625 12.5 25.625C12.5 24.5875 13.3375 23.75 14.375 23.75C15.4125 23.75 16.25 24.5875 16.25 25.625C16.25 26.6625 15.4125 27.5 14.375 27.5ZM20 22.5H8.75V5H20V22.5Z" fill="#9AB0BA"/>
</svg>
