<svg width="30" height="30" viewBox="0 0 30 30" fill="none" xmlns="http://www.w3.org/2000/svg">
<path d="M3.75 5.08125H10C10.3315 5.08125 10.6495 5.21295 10.8839 5.44737C11.1183 5.68179 11.25 5.99973 11.25 6.33125V23.8313C11.25 24.1628 11.1183 24.4807 10.8839 24.7151C10.6495 24.9496 10.3315 25.0813 10 25.0813H3.75C3.41848 25.0813 3.10054 24.9496 2.86612 24.7151C2.6317 24.4807 2.5 24.1628 2.5 23.8313V6.33125C2.5 5.99973 2.6317 5.68179 2.86612 5.44737C3.10054 5.21295 3.41848 5.08125 3.75 5.08125V5.08125ZM3.75 18.8313V21.3313H6.25V18.8313H3.75ZM15 8.83125H25C25.663 8.83125 26.2989 9.09465 26.7678 9.56349C27.2366 10.0323 27.5 10.6682 27.5 11.3313V18.8313C27.5 19.4943 27.2366 20.1302 26.7678 20.599C26.2989 21.0679 25.663 21.3313 25 21.3313H15C14.337 21.3313 13.7011 21.0679 13.2322 20.599C12.7634 20.1302 12.5 19.4943 12.5 18.8313V11.3313C12.5 10.6682 12.7634 10.0323 13.2322 9.56349C13.7011 9.09465 14.337 8.83125 15 8.83125ZM17.5 22.5813H22.5C22.8315 22.5813 23.1495 22.7129 23.3839 22.9474C23.6183 23.1818 23.75 23.4997 23.75 23.8313C23.75 24.1628 23.6183 24.4807 23.3839 24.7151C23.1495 24.9496 22.8315 25.0813 22.5 25.0813H17.5C17.1685 25.0813 16.8505 24.9496 16.6161 24.7151C16.3817 24.4807 16.25 24.1628 16.25 23.8313C16.25 23.4997 16.3817 23.1818 16.6161 22.9474C16.8505 22.7129 17.1685 22.5813 17.5 22.5813V22.5813Z" fill="#9AB0BA"/>
</svg>
