<svg width="24" height="24" viewBox="0 0 24 24" fill="none" xmlns="http://www.w3.org/2000/svg">
<path d="M6.5 2C5.83696 2 5.20107 2.26339 4.73223 2.73223C4.26339 3.20107 4 3.83696 4 4.5V19.5C4 20.163 4.26339 20.7989 4.73223 21.2678C5.20107 21.7366 5.83696 22 6.5 22H19.75C19.9489 22 20.1397 21.921 20.2803 21.7803C20.421 21.6397 20.5 21.4489 20.5 21.25C20.5 21.0511 20.421 20.8603 20.2803 20.7197C20.1397 20.579 19.9489 20.5 19.75 20.5H6.5C6.23478 20.5 5.98043 20.3946 5.79289 20.2071C5.60536 20.0196 5.5 19.7652 5.5 19.5H19.75C19.9489 19.5 20.1397 19.421 20.2803 19.2803C20.421 19.1397 20.5 18.9489 20.5 18.75V4.5C20.5 4.1717 20.4353 3.84661 20.3097 3.54329C20.1841 3.23998 19.9999 2.96438 19.7678 2.73223C19.5356 2.50009 19.26 2.31594 18.9567 2.1903C18.6534 2.06466 18.3283 2 18 2H6.5ZM15.5 12.25V12.75C15.5 13.75 14.117 14.5 12.25 14.5C10.383 14.5 9 13.75 9 12.75V12.25C9 12.0511 9.07902 11.8603 9.21967 11.7197C9.36032 11.579 9.55109 11.5 9.75 11.5H14.75C14.9489 11.5 15.1397 11.579 15.2803 11.7197C15.421 11.8603 15.5 12.0511 15.5 12.25V12.25ZM14 8.745C14 9.20913 13.8156 9.65425 13.4874 9.98244C13.1592 10.3106 12.7141 10.495 12.25 10.495C11.7859 10.495 11.3408 10.3106 11.0126 9.98244C10.6844 9.65425 10.5 9.20913 10.5 8.745C10.5 7.78 11.283 7 12.25 7C13.217 7 14 7.779 14 8.745Z" fill="#9AB0BA"/>
</svg>
