<svg width="30" height="30" viewBox="0 0 30 30" fill="none" xmlns="http://www.w3.org/2000/svg">
<path d="M15.7067 7.99805H14.2975C14.1686 7.99805 14.0632 8.10352 14.0632 8.23243V16.2979C14.0632 16.374 14.0983 16.4443 14.1598 16.4883L19.0026 20.0244C19.1081 20.1006 19.2546 20.0801 19.3307 19.9746L20.1686 18.832C20.2477 18.7236 20.2243 18.5772 20.1188 18.5039L15.9411 15.4834V8.23243C15.9411 8.10352 15.8356 7.99805 15.7067 7.99805ZM22.1462 10.2012L26.7399 11.3232C26.8864 11.3584 27.0299 11.2471 27.0299 11.0977L27.0534 6.36621C27.0534 6.16993 26.8278 6.0586 26.6755 6.18164L22.0583 9.78809C22.0234 9.81508 21.9968 9.85138 21.9816 9.8928C21.9664 9.93423 21.9632 9.97909 21.9724 10.0222C21.9816 10.0654 22.0028 10.1051 22.0335 10.1367C22.0643 10.1684 22.1033 10.1907 22.1462 10.2012V10.2012ZM27.0592 19.0225L25.3981 18.4512C25.3402 18.4313 25.2768 18.4349 25.2215 18.4612C25.1662 18.4875 25.1234 18.5344 25.1022 18.5918C25.0465 18.7412 24.988 18.8877 24.9264 19.0342C24.4049 20.2676 23.6579 21.3779 22.7028 22.3301C21.7583 23.2775 20.639 24.0326 19.4069 24.5537C18.1305 25.0934 16.7585 25.3704 15.3727 25.3682C13.9723 25.3682 12.6159 25.0957 11.3385 24.5537C10.1064 24.0326 8.98712 23.2775 8.04264 22.3301C7.09049 21.3779 6.34342 20.2676 5.81901 19.0342C5.28234 17.7571 5.00738 16.3853 5.01042 15C5.01042 13.5996 5.28288 12.2402 5.82487 10.9629C6.34635 9.7295 7.09342 8.61914 8.0485 7.667C8.99298 6.71959 10.1123 5.96443 11.3444 5.44336C12.6159 4.90137 13.9753 4.62891 15.3757 4.62891C16.776 4.62891 18.1325 4.90137 19.4098 5.44336C20.6419 5.96443 21.7613 6.71959 22.7057 7.667C23.0046 7.96875 23.2858 8.28223 23.5436 8.61328L25.2956 7.24219C22.9899 4.29493 19.401 2.39942 15.3698 2.40235C8.35026 2.40528 2.71354 8.10645 2.78385 15.1289C2.85417 22.0283 8.46452 27.5977 15.3757 27.5977C20.8102 27.5977 25.4391 24.1523 27.2028 19.3272C27.2467 19.2041 27.1823 19.0664 27.0592 19.0225V19.0225Z" fill="#9AB0BA"/>
</svg>
